<svg xmlns="http://www.w3.org/2000/svg" width="388.086" height="226.917" viewBox="0 0 388.086 226.917">
  <g id="undraw_freelancer_re_irh4" transform="translate(0 -123.292)">
    <path id="Path_522" data-name="Path 522" d="M659.573,606.585H273.513a.964.964,0,1,1,0-1.924H659.573a.964.964,0,1,1,0,1.924Z" transform="translate(-272.5 -305.274)" fill="#3f3d56"/>
    <ellipse id="Ellipse_172" data-name="Ellipse 172" cx="27.359" cy="25.981" rx="27.359" ry="25.981" transform="translate(174.344 123.292)" fill="#2f2e41"/>
    <path id="Path_523" data-name="Path 523" d="M173.414,378.04l-.724-11.776L220.178,358l1.07,17.382Z" transform="translate(2.293 -61.982)" fill="#ffb8b8"/>
    <path id="Path_524" data-name="Path 524" d="M14.372.07,37.128,0l-.044,15.082L0,15.2H0C.024,6.867,6.459.095,14.372.07Z" transform="translate(177.235 281.32) rotate(86.655)" fill="#2f2e41"/>
    <path id="Path_525" data-name="Path 525" d="M194.427,377.581l-7.888,9.114-40.77-24.556,11.642-13.451Z" transform="translate(1.936 -61.631)" fill="#ffb8b8"/>
    <path id="Path_526" data-name="Path 526" d="M14.264,0,37.5.6l.373,14.778L0,14.411H0A13.837,13.837,0,0,1,14.264,0Z" transform="matrix(0.635, -0.773, 0.773, 0.635, 171.039, 340.447)" fill="#2f2e41"/>
    <path id="Path_527" data-name="Path 527" d="M443.958,577.711l-5.39,24.132a3.7,3.7,0,0,0,.795,3.2,4.134,4.134,0,0,0,3.1,1.45l52.992.812a4.149,4.149,0,0,0,3.149-1.351,3.713,3.713,0,0,0,.908-3.167l-4.635-24.944a4,4,0,0,0-3.991-3.18H447.923A4.01,4.01,0,0,0,443.958,577.711Z" transform="translate(-270.296 -304.142)" fill="#2f2e41"/>
    <path id="Path_528" data-name="Path 528" d="M453.406,585.906s-51.677-30.792-61.81-14.434c-5.066,8.179-2.533,16.118,1.267,22.012a34.547,34.547,0,0,0,14.594,12.4l41.9,19.47,15.2-15.4L454.42,601.3Z" transform="translate(-270.956 -303.841)" fill="#2f2e41"/>
    <path id="Path_529" data-name="Path 529" d="M478.745,581.471s66.876-18.283,53.7,16.358S469.625,619,469.625,619l-5.066-14.434,17.226-11.547Z" transform="translate(-269.95 -304.217)" fill="#2f2e41"/>
    <ellipse id="Ellipse_173" data-name="Ellipse 173" cx="24.887" cy="23.634" rx="24.887" ry="23.634" transform="translate(177.158 131.572)" fill="#ffb8b8"/>
    <path id="Path_530" data-name="Path 530" d="M473.78,581.9a140.436,140.436,0,0,1-30.659-3.836l-.3-.077-13.888-60.666c-2.585-11.032,3.91-22.161,15.131-25.927a85.626,85.626,0,0,1,51.981-.986h0c11.813,3.615,18.712,15.25,15.843,26.717l-15.512,60.81-.218.1C489.715,580.936,481.654,581.9,473.78,581.9Z" transform="translate(-270.43 -300.828)" fill="#ccc"/>
    <path id="Path_531" data-name="Path 531" d="M454.783,589.442a9.943,9.943,0,0,1,6.077-5.808,10.67,10.67,0,0,1,8.59.7L496.8,561.79l2.474,17.714-26.346,18.689a10.568,10.568,0,0,1-13.163,3.276,9.532,9.532,0,0,1-4.977-12.027Z" transform="translate(-270.088 -303.656)" fill="#ffb8b8"/>
    <path id="Path_532" data-name="Path 532" d="M480.615,591.7a4.812,4.812,0,0,1-1.314-.183,4.42,4.42,0,0,1-3-2.71l-3.3-8.88a4.164,4.164,0,0,1,1.32-4.717l37.257-21.241L496.89,491.747l.374-.086c.152-.036,15.2-3.288,21.366,12.327,4.318,10.936,20.3,34.716,19.17,50.785a14.615,14.615,0,0,1-12.486,13.21L483.376,590.8A4.671,4.671,0,0,1,480.615,591.7Z" transform="translate(-269.841 -300.998)" fill="#ccc"/>
    <path id="Path_533" data-name="Path 533" d="M485.219,587.249a9.942,9.942,0,0,0-6.077-5.808,10.67,10.67,0,0,0-8.59.7L443.207,559.6l-2.474,17.714L467.079,596a10.568,10.568,0,0,0,13.163,3.276A9.532,9.532,0,0,0,485.219,587.249Z" transform="translate(-270.266 -303.574)" fill="#ffb8b8"/>
    <path id="Path_534" data-name="Path 534" d="M462.4,591.7a4.67,4.67,0,0,1-2.76-.9l-44.978-20.893A14.615,14.615,0,0,1,402.172,556.7c-1.127-16.069,17.892-41.773,22.21-52.709,6.166-15.615,21.214-12.364,21.366-12.327l.374.086L428.4,555.893l40.3,19.317a4.164,4.164,0,0,1,1.319,4.717l-3.3,8.88a4.42,4.42,0,0,1-3,2.71,4.822,4.822,0,0,1-1.314.183Z" transform="translate(-270.779 -300.998)" fill="#ccc"/>
    <path id="Path_535" data-name="Path 535" d="M515.834,603.283H425.652a6.93,6.93,0,0,1-7.093-6.736V549.4a6.929,6.929,0,0,1,7.093-6.736h90.182a6.929,6.929,0,0,1,7.093,6.736v47.151A6.929,6.929,0,0,1,515.834,603.283Z" transform="translate(-270.56 -302.935)" fill="#9f7017"/>
    <ellipse id="Ellipse_174" data-name="Ellipse 174" cx="6.08" cy="5.774" rx="6.08" ry="5.774" transform="translate(194.103 264.263)" fill="#fff"/>
    <path id="Path_536" data-name="Path 536" d="M447.1,452.806c-1.475-3.553.945-7.787,4.535-9.508s7.922-1.394,11.762-.259c3.227.953,6.252,2.431,9.4,3.6a22.024,22.024,0,0,0,9.882,1.671c3.358-.36,6.7-2.149,8.075-5.081,1.424-3.039.456-6.748-1.738-9.342a19.184,19.184,0,0,0-8.726-5.326c-7.4-2.477-15.957-2.55-22.832,1.051s-11.546,11.268-10.125,18.6" transform="translate(-270.187 -298.562)" fill="#2f2e41"/>
    <path id="Path_537" data-name="Path 537" d="M305.182,593.108a112.769,112.769,0,0,1,10.235-37.064q2.31-4.9,5.085-9.585a.7.7,0,0,0-.283-.958.777.777,0,0,0-1.018.236,115.279,115.279,0,0,0-13.951,36.549q-1.047,5.373-1.574,10.822c-.089.916,1.418.91,1.506,0Z" transform="translate(-272.086 -303.038)" fill="#e6e6e6"/>
    <ellipse id="Ellipse_175" data-name="Ellipse 175" cx="9.539" cy="9.059" rx="9.539" ry="9.059" transform="translate(42.524 227.597)" fill="#9f7017"/>
    <path id="Path_538" data-name="Path 538" d="M306.138,594.015a73.158,73.158,0,0,1,6.64-24.045q1.5-3.179,3.3-6.218a.452.452,0,0,0-.184-.621.5.5,0,0,0-.66.153,74.786,74.786,0,0,0-9.05,23.711q-.68,3.486-1.021,7.02C305.1,594.609,306.081,594.606,306.138,594.015Z" transform="translate(-272.066 -303.705)" fill="#e6e6e6"/>
    <ellipse id="Ellipse_176" data-name="Ellipse 176" cx="6.189" cy="5.877" rx="6.189" ry="5.877" transform="translate(40.188 249.781)" fill="#9f7017"/>
    <path id="Path_539" data-name="Path 539" d="M305.075,593.474a74.236,74.236,0,0,1-10.338-22.837q-.877-3.382-1.426-6.83a.486.486,0,0,0-.547-.383.47.47,0,0,0-.421.506,74.542,74.542,0,0,0,8.221,23.982q1.722,3.145,3.742,6.132c.339.5,1.108-.071.77-.571Z" transform="translate(-272.237 -303.718)" fill="#e6e6e6"/>
    <ellipse id="Ellipse_177" data-name="Ellipse 177" cx="6.189" cy="5.877" rx="6.189" ry="5.877" transform="translate(13.909 249.369)" fill="#9f7017"/>
    <path id="Path_540" data-name="Path 540" d="M286.159,599.433V587.886a4.455,4.455,0,0,1,4.56-4.33H319.09a4.454,4.454,0,0,1,4.56,4.33v11.547a4.454,4.454,0,0,1-4.56,4.33H290.718A4.455,4.455,0,0,1,286.159,599.433Z" transform="translate(-272.319 -304.478)" fill="#f2f2f2" style="isolation: isolate"/>
    <path id="Path_541" data-name="Path 541" d="M587.225,613.586c0,6.329-5.4,9.206-12.067,9.206s-12.067-2.877-12.067-9.206,2.682-13.713,12.067-11.167C584.544,598.6,587.225,607.257,587.225,613.586Z" transform="translate(-268.641 -305.154)" fill="#ff6584"/>
    <path id="Path_542" data-name="Path 542" d="M574.493,604.924a1.9,1.9,0,0,1-1.916-1.6c-.4-3.157-2.6-9.342-3.53-11.853h0a1.571,1.571,0,0,1,.223-1.507,1.839,1.839,0,0,1,1.306-.668,1.867,1.867,0,0,1,1.393.483,1.593,1.593,0,0,1,.474,1.228c-.182,3.224,2.293,8.434,3.785,11.253a1.755,1.755,0,0,1-.031,1.708,1.94,1.94,0,0,1-1.5.944A1.878,1.878,0,0,1,574.493,604.924Z" transform="translate(-268.563 -304.694)" fill="#3f3d56"/>
    <path id="Path_543" data-name="Path 543" d="M583.362,597.8c4.189-3.256.9-9.919-4.34-8.64a4.309,4.309,0,0,0-1.888.957c-3.216,2.885-3.714,10.266-3.714,10.266S579.1,601.115,583.362,597.8Z" transform="translate(-268.504 -304.683)" fill="#3f3d56"/>
  </g>
</svg>
