<svg width="1070" height="316" viewBox="0 0 1070 316" fill="none" xmlns="http://www.w3.org/2000/svg">
<g filter="url(#filter0_d_11_1760)">
<path d="M57.5 215.507C57.5 215.507 26.6667 247.34 14 253.507C24 253.507 51 283.507 63 298.007C63 298.007 54.5 269.007 57.5 269.007H196C249.2 269.007 286.833 214.007 299 186.507C312.667 155.674 342.9 87.6071 354.5 62.0071C366.1 36.4071 390.333 32.0071 401 33.0071L1055.5 34.5071C839.167 26.1738 400.9 9.60711 378.5 10.0071C356.1 10.4071 331.833 41.5071 322.5 57.0071C310.833 81.8404 282.3 142.507 261.5 186.507C240.7 230.507 209.167 238.507 196 237.007C196 237.007 60 243.007 57.5 237.007C54.5 224.507 57.5 215.507 57.5 215.507Z" fill="url(#paint0_linear_11_1760)"/>
</g>
<defs>
<filter id="filter0_d_11_1760" x="0" y="0" width="1069.5" height="316.007" filterUnits="userSpaceOnUse" color-interpolation-filters="sRGB">
<feFlood flood-opacity="0" result="BackgroundImageFix"/>
<feColorMatrix in="SourceAlpha" type="matrix" values="0 0 0 0 0 0 0 0 0 0 0 0 0 0 0 0 0 0 127 0" result="hardAlpha"/>
<feOffset dy="4"/>
<feGaussianBlur stdDeviation="7"/>
<feComposite in2="hardAlpha" operator="out"/>
<feColorMatrix type="matrix" values="0 0 0 0 0 0 0 0 0 0 0 0 0 0 0 0 0 0 0.25 0"/>
<feBlend mode="normal" in2="BackgroundImageFix" result="effect1_dropShadow_11_1760"/>
<feBlend mode="normal" in="SourceGraphic" in2="effect1_dropShadow_11_1760" result="shape"/>
</filter>
<linearGradient id="paint0_linear_11_1760" x1="14" y1="154.004" x2="1055.5" y2="154.004" gradientUnits="userSpaceOnUse">
<stop stop-color="#196BD1"/>
<stop offset="1" stop-color="#196BD1"/>
</linearGradient>
</defs>
</svg>
