<svg width="35" height="40" viewBox="0 0 35 40" fill="none" xmlns="http://www.w3.org/2000/svg">
<path d="M17.7187 30.1478L12.7915 35.0732L17.7165 39.9999L22.6437 35.0744L17.7187 30.1478Z" fill="url(#paint0_linear_7_702)"/>
<path d="M25.899 8.17822L27.8673 10.1465C27.8702 10.1494 27.8741 10.1531 27.8767 10.156C30.5866 12.8769 30.583 17.2792 27.8666 19.9963L20.9736 13.1036L25.899 8.17822Z" fill="url(#paint1_linear_7_702)"/>
<path d="M27.8767 10.156L32.7929 15.072L33.0773 15.3566C35.6412 17.9193 35.6412 22.0739 33.0773 24.6383L25.899 31.8166L20.9736 26.8898L24.4239 23.4396L27.8666 19.9959C30.5837 17.2792 30.5866 12.877 27.8767 10.156Z" fill="url(#paint2_linear_7_702)"/>
<path d="M7.57297 19.9963L14.4669 26.8898L9.54055 31.8166L7.57297 29.849C4.85198 27.128 4.85198 22.7176 7.57297 19.9963Z" fill="url(#paint3_linear_7_702)"/>
<path d="M25.899 8.17822L27.8673 10.1465C27.8702 10.1494 27.8741 10.1531 27.8767 10.156C30.5866 12.8769 30.583 17.2792 27.8666 19.9963L20.9736 13.1036L25.899 8.17822Z" fill="url(#paint4_linear_7_702)"/>
<path d="M7.57297 19.9963L14.4669 26.8898L9.54055 31.8166L7.57297 29.849C4.85198 27.128 4.85198 22.7176 7.57297 19.9963Z" fill="url(#paint5_linear_7_702)"/>
<path d="M9.54096 8.17725L14.4663 13.1036L7.57337 19.9963C4.85239 22.7175 4.85239 27.128 7.57337 29.849L2.36167 24.6373C-0.201287 22.0743 -0.201287 17.92 2.36167 15.3565L9.54096 8.17725Z" fill="url(#paint6_linear_7_702)"/>
<path d="M17.7188 -1.63238e-05L12.7935 4.92529L17.7198 9.85163L22.6451 4.92632L17.7188 -1.63238e-05Z" fill="url(#paint7_linear_7_702)"/>
<path d="M17.7534 22.3922C17.7851 22.398 17.817 22.4036 17.8501 22.4084C17.8853 22.4 17.9206 22.3913 17.9557 22.3818C17.8875 22.3879 17.8203 22.3913 17.7534 22.3922Z" fill="url(#paint8_linear_7_702)"/>
<defs>
<linearGradient id="paint0_linear_7_702" x1="14.0119" y1="1.28075" x2="18.1213" y2="38.7584" gradientUnits="userSpaceOnUse">
<stop stop-color="#0DC794"/>
<stop offset="1" stop-color="#196BD1"/>
</linearGradient>
<linearGradient id="paint1_linear_7_702" x1="23.9375" y1="0.191174" x2="28.0468" y2="37.6686" gradientUnits="userSpaceOnUse">
<stop stop-color="#0DC794"/>
<stop offset="1" stop-color="#196BD1"/>
</linearGradient>
<linearGradient id="paint2_linear_7_702" x1="25.4387" y1="0.0264309" x2="29.5481" y2="37.5041" gradientUnits="userSpaceOnUse">
<stop stop-color="#0DC794"/>
<stop offset="1" stop-color="#196BD1"/>
</linearGradient>
<linearGradient id="paint3_linear_7_702" x1="7.35816" y1="2.00874" x2="11.4675" y2="39.4864" gradientUnits="userSpaceOnUse">
<stop stop-color="#0DC794"/>
<stop offset="1" stop-color="#196BD1"/>
</linearGradient>
<linearGradient id="paint4_linear_7_702" x1="32.1876" y1="15.9696" x2="21.9964" y2="12.3533" gradientUnits="userSpaceOnUse">
<stop stop-color="#231F20" stop-opacity="0.5"/>
<stop offset="0.7" stop-color="#231F20" stop-opacity="0"/>
</linearGradient>
<linearGradient id="paint5_linear_7_702" x1="3.03493" y1="23.8148" x2="13.8836" y2="27.9242" gradientUnits="userSpaceOnUse">
<stop stop-color="#231F20" stop-opacity="0.5"/>
<stop offset="0.7" stop-color="#231F20" stop-opacity="0"/>
</linearGradient>
<linearGradient id="paint6_linear_7_702" x1="5.85684" y1="2.17349" x2="9.96622" y2="39.6511" gradientUnits="userSpaceOnUse">
<stop stop-color="#0DC794"/>
<stop offset="1" stop-color="#196BD1"/>
</linearGradient>
<linearGradient id="paint7_linear_7_702" x1="17.2803" y1="0.921309" x2="21.3897" y2="38.3989" gradientUnits="userSpaceOnUse">
<stop stop-color="#0DC794"/>
<stop offset="1" stop-color="#196BD1"/>
</linearGradient>
<linearGradient id="paint8_linear_7_702" x1="36.8779" y1="20.3085" x2="-0.599828" y2="24.4175" gradientUnits="userSpaceOnUse">
<stop stop-color="#0DC794"/>
<stop offset="1" stop-color="#196BD1"/>
</linearGradient>
</defs>
</svg>
