<svg width="42" height="42" viewBox="0 0 42 42" fill="none" xmlns="http://www.w3.org/2000/svg">
<circle cx="21.0114" cy="20.9646" r="19.9646" stroke="white" stroke-width="2"/>
<g clip-path="url(#clip0_11_1841)">
<path d="M26.3464 14.9681C26.1342 14.9681 25.9266 15.0314 25.7501 15.1498C25.5736 15.2683 25.436 15.4367 25.3548 15.6337C25.2735 15.8307 25.2523 16.0475 25.2937 16.2566C25.3351 16.4658 25.4373 16.6579 25.5875 16.8087C25.7376 16.9595 25.9288 17.0622 26.137 17.1038C26.3453 17.1454 26.5611 17.124 26.7572 17.0424C26.9534 16.9608 27.121 16.8226 27.2389 16.6453C27.3569 16.468 27.4198 16.2595 27.4198 16.0463C27.4198 15.7603 27.3067 15.4861 27.1054 15.2839C26.9041 15.0817 26.6311 14.9681 26.3464 14.9681ZM30.4611 17.1424C30.4437 16.397 30.3047 15.6594 30.0496 14.9591C29.8222 14.36 29.4682 13.8174 29.012 13.3688C28.5691 12.9083 28.0277 12.555 27.4288 12.3356C26.7335 12.0716 25.9984 11.9287 25.2552 11.9133C24.307 11.8594 24.0029 11.8594 21.5699 11.8594C19.1369 11.8594 18.8327 11.8594 17.8846 11.9133C17.1414 11.9287 16.4063 12.0716 15.711 12.3356C15.1132 12.5572 14.5722 12.9102 14.1277 13.3688C13.6692 13.8137 13.3175 14.3575 13.0991 14.9591C12.8362 15.6576 12.6941 16.3959 12.6787 17.1424C12.625 18.0948 12.625 18.4003 12.625 20.8442C12.625 23.2881 12.625 23.5935 12.6787 24.5459C12.6941 25.2924 12.8362 26.0308 13.0991 26.7292C13.3175 27.3308 13.6692 27.8746 14.1277 28.3196C14.5722 28.7782 15.1132 29.1312 15.711 29.3528C16.4063 29.6168 17.1414 29.7596 17.8846 29.7751C18.8327 29.829 19.1369 29.829 21.5699 29.829C24.0029 29.829 24.307 29.829 25.2552 29.7751C25.9984 29.7596 26.7335 29.6168 27.4288 29.3528C28.0277 29.1334 28.5691 28.7801 29.012 28.3196C29.4702 27.8726 29.8245 27.3296 30.0496 26.7292C30.3047 26.029 30.4437 25.2914 30.4611 24.5459C30.4611 23.5935 30.5148 23.2881 30.5148 20.8442C30.5148 18.4003 30.5148 18.0948 30.4611 17.1424ZM28.851 24.4381C28.8445 25.0084 28.7417 25.5735 28.5469 26.1093C28.4041 26.5003 28.1747 26.8536 27.876 27.1425C27.5859 27.4395 27.2349 27.6694 26.8474 27.8164C26.314 28.0121 25.7514 28.1154 25.1836 28.1219C24.2891 28.1668 23.9582 28.1758 21.6057 28.1758C19.2532 28.1758 18.9222 28.1758 18.0277 28.1219C17.4381 28.133 16.8511 28.0418 16.2924 27.8523C15.9219 27.6979 15.587 27.4685 15.3085 27.1785C15.0116 26.8898 14.785 26.5362 14.6465 26.1452C14.4282 25.6018 14.307 25.0239 14.2887 24.4381C14.2887 23.5396 14.2351 23.2072 14.2351 20.8442C14.2351 18.4812 14.2351 18.1487 14.2887 17.2503C14.2928 16.6672 14.3987 16.0894 14.6018 15.5431C14.7593 15.1639 15.001 14.8259 15.3085 14.5548C15.5802 14.2459 15.9161 14.0005 16.2924 13.836C16.8376 13.6384 17.4123 13.5351 17.9919 13.5306C18.8864 13.5306 19.2174 13.4766 21.5699 13.4766C23.9224 13.4766 24.2533 13.4766 25.1478 13.5306C25.7156 13.5371 26.2782 13.6404 26.8116 13.836C27.2181 13.9876 27.5829 14.2339 27.876 14.5548C28.1691 14.8308 28.3982 15.1682 28.5469 15.5431C28.7457 16.0903 28.8486 16.6679 28.851 17.2503C28.8957 18.1487 28.9047 18.4812 28.9047 20.8442C28.9047 23.2072 28.8957 23.5396 28.851 24.4381ZM21.5699 16.235C20.6627 16.2368 19.7764 16.5086 19.023 17.0161C18.2695 17.5237 17.6828 18.2442 17.3368 19.0865C16.9909 19.9289 16.9013 20.8554 17.0794 21.7489C17.2574 22.6424 17.6952 23.4628 18.3373 24.1066C18.9794 24.7503 19.797 25.1884 20.6869 25.3655C21.5768 25.5426 22.499 25.4508 23.3369 25.1017C24.1749 24.7526 24.891 24.1618 25.3948 23.404C25.8987 22.6462 26.1675 21.7554 26.1676 20.8442C26.1687 20.2378 26.0506 19.6372 25.8198 19.0768C25.5891 18.5165 25.2503 18.0075 24.823 17.5792C24.3957 17.1508 23.8883 16.8115 23.3301 16.5808C22.7718 16.3501 22.1736 16.2326 21.5699 16.235ZM21.5699 23.8361C20.9808 23.8361 20.4049 23.6607 19.915 23.3319C19.4252 23.0031 19.0434 22.5359 18.818 21.9892C18.5925 21.4425 18.5335 20.8409 18.6485 20.2605C18.7634 19.6801 19.0471 19.147 19.4637 18.7286C19.8802 18.3101 20.411 18.0252 20.9888 17.9097C21.5666 17.7943 22.1655 17.8535 22.7098 18.08C23.254 18.3064 23.7192 18.6899 24.0465 19.182C24.3738 19.674 24.5485 20.2524 24.5485 20.8442C24.5485 21.2371 24.4715 21.6262 24.3218 21.9892C24.1721 22.3522 23.9527 22.682 23.6761 22.9598C23.3995 23.2376 23.0711 23.458 22.7098 23.6084C22.3484 23.7587 21.961 23.8361 21.5699 23.8361Z" fill="white"/>
</g>
<defs>
<clipPath id="clip0_11_1841">
<rect width="20.126" height="21.5636" fill="white" transform="translate(10.9492 10.0625)"/>
</clipPath>
</defs>
</svg>
