<svg width="74" height="86" viewBox="0 0 74 86" fill="none" xmlns="http://www.w3.org/2000/svg">
<path d="M36.9994 64.5529L26.4492 75.0994L36.9946 85.6484L47.5447 75.102L36.9994 64.5529Z" fill="url(#paint0_linear_7_462)"/>
<path d="M54.5111 17.5112L58.7257 21.7258C58.7319 21.732 58.7401 21.7398 58.7458 21.746C64.5482 27.5722 64.5405 36.9983 58.7241 42.8162L43.9648 28.0575L54.5111 17.5112Z" fill="url(#paint1_linear_7_462)"/>
<path d="M58.7458 21.7461L69.2724 32.2722L69.8814 32.8816C75.3713 38.3689 75.3713 47.2647 69.8814 52.7557L54.5111 68.126L43.9648 57.5766L51.3525 50.189L58.7241 42.8153C64.542 36.9984 64.5482 27.5723 58.7458 21.7461Z" fill="url(#paint2_linear_7_462)"/>
<path d="M15.272 42.8164L30.0333 57.5767L19.485 68.126L15.272 63.913C9.44579 58.0868 9.44579 48.6431 15.272 42.8164Z" fill="url(#paint3_linear_7_462)"/>
<path d="M54.5111 17.5112L58.7257 21.7258C58.7319 21.732 58.7401 21.7398 58.7458 21.746C64.5482 27.5722 64.5405 36.9983 58.7241 42.8162L43.9648 28.0575L54.5111 17.5112Z" fill="url(#paint4_linear_7_462)"/>
<path d="M15.272 42.8164L30.0333 57.5767L19.485 68.126L15.272 63.913C9.44579 58.0868 9.44579 48.6431 15.272 42.8164Z" fill="url(#paint5_linear_7_462)"/>
<path d="M19.4882 17.5093L30.0345 28.0576L15.2752 42.8163C9.44901 48.643 9.44901 58.0867 15.2752 63.9129L4.11587 52.7536C-1.37196 47.2658 -1.37196 38.3705 4.11587 32.8816L19.4882 17.5093Z" fill="url(#paint6_linear_7_462)"/>
<path d="M36.9992 -0.000218663L26.4531 10.5459L37.0014 21.0942L47.5476 10.5481L36.9992 -0.000218663Z" fill="url(#paint7_linear_7_462)"/>
<path d="M39.6446 42.83L37.0112 45.4635L34.3777 42.83L34.3555 42.8078L36.9889 40.1743H36.9894L36.9998 40.1857L39.6446 42.83Z" fill="url(#paint8_linear_7_462)"/>
<path d="M37.0742 47.9466C37.142 47.959 37.2103 47.9709 37.2812 47.9812C37.3567 47.9631 37.4322 47.9445 37.5073 47.9243C37.3614 47.9373 37.2175 47.9445 37.0742 47.9466Z" fill="url(#paint9_linear_7_462)"/>
<path d="M44.3535 37.5182L41.72 40.1517L40.8508 39.2819C39.8295 38.2606 38.4443 37.6869 37 37.6869C35.5556 37.6869 34.1705 38.2606 33.1492 39.2819L32.2624 40.1682L29.6289 37.5348L30.5157 36.6485C31.656 35.503 33.0807 34.6816 34.6433 34.2685C35.9455 33.9275 37.3061 33.8729 38.6313 34.1087C40.4716 34.4375 42.166 35.325 43.4843 36.6506L44.3535 37.5182Z" fill="url(#paint10_linear_7_462)"/>
<path d="M29.6272 42.8024L26.9772 45.4524L24.3438 42.819L25.1302 42.0325L26.9938 40.1689L29.6272 42.8024Z" fill="url(#paint11_linear_7_462)"/>
<path d="M49.6524 42.8193L47.019 45.4527L44.3855 42.8193L44.3633 42.797L46.9967 40.1636L47.0076 40.1744L49.6524 42.8193Z" fill="url(#paint12_linear_7_462)"/>
<path d="M44.3767 48.097L43.4852 48.9884C42.6337 49.84 41.6228 50.5156 40.5103 50.9765C39.3977 51.4374 38.2052 51.6746 37.0009 51.6746C35.7967 51.6746 34.6042 51.4374 33.4916 50.9765C32.379 50.5156 31.3681 49.84 30.5166 48.9884L29.6133 48.0856L32.2467 45.4521L33.1501 46.355C33.664 46.8697 34.2763 47.2759 34.9503 47.5494C35.6244 47.8229 36.3465 47.9581 37.0739 47.9469C37.1417 47.9594 37.2099 47.9713 37.2808 47.9816C37.3564 47.9635 37.4319 47.9449 37.5069 47.9247C38.7722 47.8097 39.9569 47.2542 40.8544 46.355L41.7458 45.4635L44.3767 48.097Z" fill="url(#paint13_linear_7_462)"/>
<defs>
<linearGradient id="paint0_linear_7_462" x1="29.0623" y1="2.74257" x2="37.8614" y2="82.99" gradientUnits="userSpaceOnUse">
<stop stop-color="#0DC794"/>
<stop offset="1" stop-color="#196BD1"/>
</linearGradient>
<linearGradient id="paint1_linear_7_462" x1="50.311" y1="0.409289" x2="59.1101" y2="80.6562" gradientUnits="userSpaceOnUse">
<stop stop-color="#0DC794"/>
<stop offset="1" stop-color="#196BD1"/>
</linearGradient>
<linearGradient id="paint2_linear_7_462" x1="53.5255" y1="0.0565538" x2="62.3245" y2="80.304" gradientUnits="userSpaceOnUse">
<stop stop-color="#0DC794"/>
<stop offset="1" stop-color="#196BD1"/>
</linearGradient>
<linearGradient id="paint3_linear_7_462" x1="14.812" y1="4.3012" x2="23.6111" y2="84.5487" gradientUnits="userSpaceOnUse">
<stop stop-color="#0DC794"/>
<stop offset="1" stop-color="#196BD1"/>
</linearGradient>
<linearGradient id="paint4_linear_7_462" x1="67.9764" y1="34.1941" x2="46.1549" y2="26.451" gradientUnits="userSpaceOnUse">
<stop stop-color="#231F20" stop-opacity="0.5"/>
<stop offset="0.7" stop-color="#231F20" stop-opacity="0"/>
</linearGradient>
<linearGradient id="paint5_linear_7_462" x1="5.55511" y1="50.9925" x2="28.7844" y2="59.7916" gradientUnits="userSpaceOnUse">
<stop stop-color="#231F20" stop-opacity="0.5"/>
<stop offset="0.7" stop-color="#231F20" stop-opacity="0"/>
</linearGradient>
<linearGradient id="paint6_linear_7_462" x1="11.5998" y1="4.65398" x2="20.3988" y2="84.9014" gradientUnits="userSpaceOnUse">
<stop stop-color="#0DC794"/>
<stop offset="1" stop-color="#196BD1"/>
</linearGradient>
<linearGradient id="paint7_linear_7_462" x1="36.0603" y1="1.97253" x2="44.8594" y2="82.22" gradientUnits="userSpaceOnUse">
<stop stop-color="#0DC794"/>
<stop offset="1" stop-color="#196BD1"/>
</linearGradient>
<linearGradient id="paint8_linear_7_462" x1="77.463" y1="38.3821" x2="-2.78458" y2="47.1812" gradientUnits="userSpaceOnUse">
<stop stop-color="#0DC794"/>
<stop offset="1" stop-color="#196BD1"/>
</linearGradient>
<linearGradient id="paint9_linear_7_462" x1="78.0237" y1="43.4848" x2="-2.22392" y2="52.2831" gradientUnits="userSpaceOnUse">
<stop stop-color="#0DC794"/>
<stop offset="1" stop-color="#196BD1"/>
</linearGradient>
<linearGradient id="paint10_linear_7_462" x1="76.863" y1="32.9166" x2="-3.38449" y2="41.7157" gradientUnits="userSpaceOnUse">
<stop stop-color="#0DC794"/>
<stop offset="1" stop-color="#196BD1"/>
</linearGradient>
<linearGradient id="paint11_linear_7_462" x1="77.3409" y1="37.2887" x2="-2.90657" y2="46.0878" gradientUnits="userSpaceOnUse">
<stop stop-color="#0DC794"/>
<stop offset="1" stop-color="#196BD1"/>
</linearGradient>
<linearGradient id="paint12_linear_7_462" x1="77.5785" y1="39.4558" x2="-2.66848" y2="48.2549" gradientUnits="userSpaceOnUse">
<stop stop-color="#0DC794"/>
<stop offset="1" stop-color="#196BD1"/>
</linearGradient>
<linearGradient id="paint13_linear_7_462" x1="78.0606" y1="43.8286" x2="-2.18686" y2="52.6277" gradientUnits="userSpaceOnUse">
<stop stop-color="#0DC794"/>
<stop offset="1" stop-color="#196BD1"/>
</linearGradient>
</defs>
</svg>
