<svg width="562" height="106" viewBox="0 0 562 106" fill="none" xmlns="http://www.w3.org/2000/svg">
<mask id="path-1-inside-1_7_977" fill="white">
<path d="M61.7727 0.72727H89.8097V66.8864C89.8097 74.7528 87.9271 81.5604 84.1619 87.3089C80.4304 93.0239 75.2197 97.4446 68.5298 100.571C61.84 103.664 54.0743 105.21 45.233 105.21C36.3243 105.21 28.5251 103.664 21.8352 100.571C15.1454 97.4446 9.93466 93.0239 6.20312 87.3089C2.50521 81.5604 0.65625 74.7528 0.65625 66.8864V0.72727H28.6932V64.4659C28.6932 67.6596 29.3991 70.517 30.8111 73.0384C32.223 75.526 34.1728 77.4759 36.6605 78.8878C39.1818 80.2997 42.0393 81.0057 45.233 81.0057C48.4602 81.0057 51.3177 80.2997 53.8054 78.8878C56.2931 77.4759 58.2429 75.526 59.6548 73.0384C61.0668 70.517 61.7727 67.6596 61.7727 64.4659V0.72727ZM100.311 23.3182V0.72727H190.069V23.3182H159.007V104H131.373V23.3182H100.311ZM228.658 0.72727V104H200.621V0.72727H228.658ZM241.945 104V0.72727H269.982V81.4091H311.735V104H241.945ZM351.105 0.72727V104H323.068V0.72727H351.105ZM361.569 23.3182V0.72727H451.327V23.3182H420.265V104H392.631V23.3182H361.569ZM457.643 0.72727H488.907L509.078 42.6818H509.885L530.055 0.72727H561.319L523.399 71.5256V104H495.564V71.5256L457.643 0.72727Z"/>
</mask>
<path d="M61.7727 0.72727V-2.27273H58.7727V0.72727H61.7727ZM89.8097 0.72727H92.8097V-2.27273H89.8097V0.72727ZM84.1619 87.3089L81.6523 85.6652L81.65 85.6688L84.1619 87.3089ZM68.5298 100.571L69.7888 103.294L69.8 103.289L68.5298 100.571ZM21.8352 100.571L20.5651 103.289L20.5763 103.294L21.8352 100.571ZM6.20312 87.3089L3.68007 88.932L3.68559 88.9406L3.69118 88.9491L6.20312 87.3089ZM0.65625 0.72727V-2.27273H-2.34375V0.72727H0.65625ZM28.6932 0.72727H31.6932V-2.27273H28.6932V0.72727ZM30.8111 73.0384L28.1936 74.5042L28.1978 74.5117L28.202 74.5192L30.8111 73.0384ZM36.6605 78.8878L35.1797 81.4968L35.1872 81.5011L35.1947 81.5053L36.6605 78.8878ZM53.8054 78.8878L55.2862 81.4968L53.8054 78.8878ZM59.6548 73.0384L62.2639 74.5192L62.2681 74.5117L62.2723 74.5042L59.6548 73.0384ZM61.7727 3.72727H89.8097V-2.27273H61.7727V3.72727ZM86.8097 0.72727V66.8864H92.8097V0.72727H86.8097ZM86.8097 66.8864C86.8097 74.2557 85.053 80.4731 81.6523 85.6652L86.6715 88.9527C90.8011 82.6477 92.8097 75.2499 92.8097 66.8864H86.8097ZM81.65 85.6688C78.2489 90.8776 73.4864 94.9432 67.2597 97.8532L69.8 103.289C76.953 99.946 82.6119 95.1702 86.6739 88.9491L81.65 85.6688ZM67.2709 97.8479C61.0465 100.726 53.725 102.21 45.233 102.21V108.21C54.4236 108.21 62.6334 106.602 69.7887 103.294L67.2709 97.8479ZM45.233 102.21C36.6699 102.21 29.3158 100.724 23.0941 97.8479L20.5763 103.294C27.7344 106.603 35.9787 108.21 45.233 108.21V102.21ZM23.1054 97.8532C16.8787 94.9432 12.1161 90.8776 8.71507 85.6688L3.69118 88.9491C7.75319 95.1702 13.4121 99.946 20.5651 103.289L23.1054 97.8532ZM8.72618 85.6859C5.3845 80.4911 3.65625 74.2662 3.65625 66.8864H-2.34375C-2.34375 75.2395 -0.374079 82.6296 3.68007 88.932L8.72618 85.6859ZM3.65625 66.8864V0.72727H-2.34375V66.8864H3.65625ZM0.65625 3.72727H28.6932V-2.27273H0.65625V3.72727ZM25.6932 0.72727V64.4659H31.6932V0.72727H25.6932ZM25.6932 64.4659C25.6932 68.1176 26.5052 71.4892 28.1936 74.5042L33.4286 71.5725C32.2931 69.5449 31.6932 67.2015 31.6932 64.4659H25.6932ZM28.202 74.5192C29.8813 77.4779 32.221 79.8176 35.1797 81.4968L38.1413 76.2787C36.1247 75.1341 34.5647 73.5742 33.4201 71.5575L28.202 74.5192ZM35.1947 81.5053C38.2097 83.1937 41.5813 84.0057 45.233 84.0057V78.0057C42.4973 78.0057 40.1539 77.4057 38.1263 76.2703L35.1947 81.5053ZM45.233 84.0057C48.9116 84.0057 52.2916 83.1965 55.2862 81.4968L52.3246 76.2787C50.3439 77.4029 48.0089 78.0057 45.233 78.0057V84.0057ZM55.2862 81.4968C58.2449 79.8176 60.5846 77.4779 62.2639 74.5192L57.0458 71.5575C55.9012 73.5742 54.3412 75.1341 52.3246 76.2787L55.2862 81.4968ZM62.2723 74.5042C63.9607 71.4892 64.7727 68.1176 64.7727 64.4659H58.7727C58.7727 67.2015 58.1728 69.5449 57.0373 71.5725L62.2723 74.5042ZM64.7727 64.4659V0.72727H58.7727V64.4659H64.7727ZM100.311 23.3182H97.3109V26.3182H100.311V23.3182ZM100.311 0.72727V-2.27273H97.3109V0.72727H100.311ZM190.069 0.72727H193.069V-2.27273H190.069V0.72727ZM190.069 23.3182V26.3182H193.069V23.3182H190.069ZM159.007 23.3182V20.3182H156.007V23.3182H159.007ZM159.007 104V107H162.007V104H159.007ZM131.373 104H128.373V107H131.373V104ZM131.373 23.3182H134.373V20.3182H131.373V23.3182ZM103.311 23.3182V0.72727H97.3109V23.3182H103.311ZM100.311 3.72727H190.069V-2.27273H100.311V3.72727ZM187.069 0.72727V23.3182H193.069V0.72727H187.069ZM190.069 20.3182H159.007V26.3182H190.069V20.3182ZM156.007 23.3182V104H162.007V23.3182H156.007ZM159.007 101H131.373V107H159.007V101ZM134.373 104V23.3182H128.373V104H134.373ZM131.373 20.3182H100.311V26.3182H131.373V20.3182ZM228.658 0.72727H231.658V-2.27273H228.658V0.72727ZM228.658 104V107H231.658V104H228.658ZM200.621 104H197.621V107H200.621V104ZM200.621 0.72727V-2.27273H197.621V0.72727H200.621ZM225.658 0.72727V104H231.658V0.72727H225.658ZM228.658 101H200.621V107H228.658V101ZM203.621 104V0.72727H197.621V104H203.621ZM200.621 3.72727H228.658V-2.27273H200.621V3.72727ZM241.945 104H238.945V107H241.945V104ZM241.945 0.72727V-2.27273H238.945V0.72727H241.945ZM269.982 0.72727H272.982V-2.27273H269.982V0.72727ZM269.982 81.4091H266.982V84.4091H269.982V81.4091ZM311.735 81.4091H314.735V78.4091H311.735V81.4091ZM311.735 104V107H314.735V104H311.735ZM244.945 104V0.72727H238.945V104H244.945ZM241.945 3.72727H269.982V-2.27273H241.945V3.72727ZM266.982 0.72727V81.4091H272.982V0.72727H266.982ZM269.982 84.4091H311.735V78.4091H269.982V84.4091ZM308.735 81.4091V104H314.735V81.4091H308.735ZM311.735 101H241.945V107H311.735V101ZM351.105 0.72727H354.105V-2.27273H351.105V0.72727ZM351.105 104V107H354.105V104H351.105ZM323.068 104H320.068V107H323.068V104ZM323.068 0.72727V-2.27273H320.068V0.72727H323.068ZM348.105 0.72727V104H354.105V0.72727H348.105ZM351.105 101H323.068V107H351.105V101ZM326.068 104V0.72727H320.068V104H326.068ZM323.068 3.72727H351.105V-2.27273H323.068V3.72727ZM361.569 23.3182H358.569V26.3182H361.569V23.3182ZM361.569 0.72727V-2.27273H358.569V0.72727H361.569ZM451.327 0.72727H454.327V-2.27273H451.327V0.72727ZM451.327 23.3182V26.3182H454.327V23.3182H451.327ZM420.265 23.3182V20.3182H417.265V23.3182H420.265ZM420.265 104V107H423.265V104H420.265ZM392.631 104H389.631V107H392.631V104ZM392.631 23.3182H395.631V20.3182H392.631V23.3182ZM364.569 23.3182V0.72727H358.569V23.3182H364.569ZM361.569 3.72727H451.327V-2.27273H361.569V3.72727ZM448.327 0.72727V23.3182H454.327V0.72727H448.327ZM451.327 20.3182H420.265V26.3182H451.327V20.3182ZM417.265 23.3182V104H423.265V23.3182H417.265ZM420.265 101H392.631V107H420.265V101ZM395.631 104V23.3182H389.631V104H395.631ZM392.631 20.3182H361.569V26.3182H392.631V20.3182ZM457.643 0.72727V-2.27273H452.633L454.999 2.14372L457.643 0.72727ZM488.907 0.72727L491.611 -0.572614L490.794 -2.27273H488.907V0.72727ZM509.078 42.6818L506.374 43.9817L507.191 45.6818H509.078V42.6818ZM509.885 42.6818V45.6818H511.771L512.588 43.9817L509.885 42.6818ZM530.055 0.72727V-2.27273H528.169L527.351 -0.572613L530.055 0.72727ZM561.319 0.72727L563.964 2.14372L566.329 -2.27273H561.319V0.72727ZM523.399 71.5256L520.754 70.1091L520.399 70.7727V71.5256H523.399ZM523.399 104V107H526.399V104H523.399ZM495.564 104H492.564V107H495.564V104ZM495.564 71.5256H498.564V70.7727L498.208 70.1091L495.564 71.5256ZM457.643 3.72727H488.907V-2.27273H457.643V3.72727ZM486.204 2.02715L506.374 43.9817L511.782 41.3819L491.611 -0.572614L486.204 2.02715ZM509.078 45.6818H509.885V39.6818H509.078V45.6818ZM512.588 43.9817L532.759 2.02715L527.351 -0.572613L507.181 41.3819L512.588 43.9817ZM530.055 3.72727H561.319V-2.27273H530.055V3.72727ZM558.675 -0.689186L520.754 70.1091L526.043 72.942L563.964 2.14372L558.675 -0.689186ZM520.399 71.5256V104H526.399V71.5256H520.399ZM523.399 101H495.564V107H523.399V101ZM498.564 104V71.5256H492.564V104H498.564ZM498.208 70.1091L460.288 -0.689186L454.999 2.14372L492.919 72.942L498.208 70.1091Z" fill="url(#paint0_linear_7_977)" mask="url(#path-1-inside-1_7_977)"/>
<defs>
<linearGradient id="paint0_linear_7_977" x1="-6" y1="52.5" x2="564" y2="52.5" gradientUnits="userSpaceOnUse">
<stop stop-color="#1582C3"/>
<stop offset="1" stop-color="#0DC794"/>
</linearGradient>
</defs>
</svg>
